<?xml version="1.0"?>
<svg xmlns="http://www.w3.org/2000/svg" height="512px" viewBox="-24 0 511 512" width="512px"><g><path d="m112.371094 512c-4.421875 0-8-3.574219-8-8 0-30.871094 25.128906-56 56-56 4.425781 0 8 3.574219 8 8s-3.574219 8-8 8c-22.054688 0-40 17.945312-40 40 0 4.425781-3.574219 8-8 8zm0 0" data-original="#000000" class="active-path" data-old_color="#000000" fill="#FFFFFF"/><path d="m192.371094 464.015625-32.007813-.015625c-4.414062 0-7.992187-3.585938-7.992187-8 0-4.425781 3.585937-8 8-8h.007812l32 .015625c4.417969 0 7.992188 3.585937 7.992188 8 0 4.425781-3.582032 8-8 8zm0 0" data-original="#000000" class="active-path" data-old_color="#000000" fill="#FFFFFF"/><path d="m352.371094 512c-4.421875 0-8-3.574219-8-8 0-22.054688-17.941406-40-40-40-4.421875 0-8-3.574219-8-8s3.578125-8 8-8c30.871094 0 56 25.128906 56 56 0 4.425781-3.574219 8-8 8zm0 0" data-original="#000000" class="active-path" data-old_color="#000000" fill="#FFFFFF"/><path d="m272.371094 464.015625c-4.414063 0-8-3.574219-8-8 0-4.414063 3.578125-8 7.992187-8l32-.015625h.007813c4.417968 0 8 3.574219 8 8 0 4.414062-3.574219 8-7.992188 8zm0 0" data-original="#000000" class="active-path" data-old_color="#000000" fill="#FFFFFF"/><path d="m192.371094 464.015625c-4.421875 0-8-3.574219-8-8v-25.609375c0-4.421875 3.578125-8 8-8 4.425781 0 8 3.578125 8 8v25.609375c0 4.425781-3.574219 8-8 8zm0 0" data-original="#000000" class="active-path" data-old_color="#000000" fill="#FFFFFF"/><path d="m272.371094 464c-4.421875 0-8-3.574219-8-8v-25.59375c0-4.421875 3.578125-8 8-8 4.425781 0 8 3.578125 8 8v25.59375c0 4.425781-3.574219 8-8 8zm0 0" data-original="#000000" class="active-path" data-old_color="#000000" fill="#FFFFFF"/><path d="m232.371094 448c-52.933594 0-96-43.0625-96-96 0-4.425781 3.578125-8 8-8 4.425781 0 8 3.574219 8 8 0 44.113281 35.890625 80 80 80 44.113281 0 80-35.886719 80-80 0-4.425781 3.578125-8 8-8 4.425781 0 8 3.574219 8 8 0 52.9375-43.0625 96-96 96zm0 0" data-original="#000000" class="active-path" data-old_color="#000000" fill="#FFFFFF"/><path d="m320.371094 312c-4.421875 0-8-3.574219-8-8 0-44.113281-35.886719-80-80-80-44.109375 0-80 35.886719-80 80 0 4.425781-3.574219 8-8 8-4.421875 0-8-3.574219-8-8 0-52.9375 43.066406-96 96-96 52.9375 0 96 43.0625 96 96 0 4.425781-3.574219 8-8 8zm0 0" data-original="#000000" class="active-path" data-old_color="#000000" fill="#FFFFFF"/><path d="m144.371094 360.015625c-4.421875 0-8-3.574219-8-8v-48.015625c0-4.425781 3.578125-8 8-8 4.425781 0 8 3.574219 8 8v48.015625c0 4.425781-3.574219 8-8 8zm0 0" data-original="#000000" class="active-path" data-old_color="#000000" fill="#FFFFFF"/><path d="m320.371094 360.015625c-4.421875 0-8-3.574219-8-8v-48.015625c0-4.425781 3.578125-8 8-8 4.425781 0 8 3.574219 8 8v48.015625c0 4.425781-3.574219 8-8 8zm0 0" data-original="#000000" class="active-path" data-old_color="#000000" fill="#FFFFFF"/><path d="m320.371094 328c-2.046875 0-4.09375-.785156-5.65625-2.34375l-24-24c-3.125-3.128906-3.125-8.183594 0-11.3125 3.128906-3.128906 8.183594-3.128906 11.3125 0l24 24c3.128906 3.128906 3.128906 8.183594 0 11.3125-1.558594 1.558594-3.605469 2.34375-5.65625 2.34375zm0 0" data-original="#000000" class="active-path" data-old_color="#000000" fill="#FFFFFF"/><path d="m232.371094 320c-35.878906 0-66.503906-16.265625-67.792969-16.953125-3.886719-2.09375-5.34375-6.933594-3.253906-10.832031 2.085937-3.878906 6.917969-5.375 10.832031-3.261719.28125.152344 28.472656 15.046875 60.214844 15.046875 31.898437 0 59.929687-14.886719 60.207031-15.046875 3.875-2.097656 8.746094-.632813 10.832031 3.253906 2.089844 3.890625.632813 8.746094-3.253906 10.832031-1.273438.695313-31.894531 16.960938-67.785156 16.960938zm0 0" data-original="#000000" class="active-path" data-old_color="#000000" fill="#FFFFFF"/><path d="m144.371094 328c-2.046875 0-4.09375-.785156-5.65625-2.34375-3.125-3.128906-3.125-8.183594 0-11.3125l24-24c3.128906-3.128906 8.183594-3.128906 11.3125 0s3.128906 8.183594 0 11.3125l-24 24c-1.558594 1.558594-3.605469 2.34375-5.65625 2.34375zm0 0" data-original="#000000" class="active-path" data-old_color="#000000" fill="#FFFFFF"/><path d="m208.371094 480c-2.046875 0-4.09375-.785156-5.65625-2.34375l-16-15.984375c-3.125-3.121094-3.125-8.183594 0-11.3125 3.128906-3.128906 8.183594-3.128906 11.3125 0l16 15.984375c3.128906 3.121094 3.128906 8.183594 0 11.3125-1.558594 1.558594-3.605469 2.34375-5.65625 2.34375zm0 0" data-original="#000000" class="active-path" data-old_color="#000000" fill="#FFFFFF"/><path d="m208.371094 480c-3.351563 0-6.472656-2.121094-7.582032-5.472656-1.402343-4.191406.863282-8.726563 5.054688-10.121094l24-8c4.222656-1.414062 8.71875.867188 10.121094 5.058594 1.398437 4.191406-.863282 8.726562-5.058594 10.121094l-24 8c-.847656.277343-1.695312.414062-2.535156.414062zm0 0" data-original="#000000" class="active-path" data-old_color="#000000" fill="#FFFFFF"/><path d="m256.371094 480c-2.046875 0-4.09375-.785156-5.65625-2.34375-3.125-3.128906-3.125-8.191406 0-11.3125l16-15.984375c3.128906-3.128906 8.183594-3.128906 11.3125 0s3.128906 8.191406 0 11.3125l-16 15.984375c-1.558594 1.558594-3.605469 2.34375-5.65625 2.34375zm0 0" data-original="#000000" class="active-path" data-old_color="#000000" fill="#FFFFFF"/><path d="m256.371094 480c-.832032 0-1.6875-.136719-2.527344-.414062l-24-8c-4.183594-1.394532-6.457031-5.921876-5.054688-10.121094 1.398438-4.183594 5.894532-6.472656 10.117188-5.058594l24 8c4.1875 1.394531 6.457031 5.921875 5.058594 10.121094-1.121094 3.351562-4.242188 5.472656-7.59375 5.472656zm0 0" data-original="#000000" class="active-path" data-old_color="#000000" fill="#FFFFFF"/><path d="m232.371094 192c-52.933594 0-96-43.0625-96-96s43.066406-96 96-96c52.9375 0 96 43.0625 96 96s-43.0625 96-96 96zm0-176c-44.109375 0-80 35.886719-80 80s35.890625 80 80 80c44.113281 0 80-35.886719 80-80s-35.886719-80-80-80zm0 0" data-original="#000000" class="active-path" data-old_color="#000000" fill="#FFFFFF"/><path d="m64.5 280.023438c-35.289062 0-64-28.710938-64-64 0-35.289063 28.710938-64 64-64s64 28.710937 64 64c0 35.289062-28.710938 64-64 64zm0-112c-26.472656 0-48 21.527343-48 48 0 26.472656 21.527344 48 48 48s48-21.527344 48-48c0-26.472657-21.535156-48-48-48zm0 0" data-original="#000000" class="active-path" data-old_color="#000000" fill="#FFFFFF"/><path d="m64.5 240.023438c-13.230469 0-24-10.765626-24-24 0-13.230469 10.769531-24 24-24s24 10.769531 24 24c0 13.234374-10.769531 24-24 24zm0-32c-4.414062 0-8 3.585937-8 8 0 4.417968 3.585938 8 8 8s8-3.582032 8-8c0-4.414063-3.585938-8-8-8zm0 0" data-original="#000000" class="active-path" data-old_color="#000000" fill="#FFFFFF"/><path d="m96.421875 270.023438c-4.195313 0-7.722656-3.261719-7.976563-7.503907-.785156-12.609375-11.296874-22.496093-23.953124-22.496093s-23.167969 9.878906-23.953126 22.496093c-.261718 4.410157-4 7.785157-8.480468 7.496094-4.40625-.273437-7.765625-4.070313-7.496094-8.480469 1.296875-21.03125 18.832031-37.503906 39.921875-37.503906 21.085937 0 38.625 16.480469 39.917969 37.503906.273437 4.410156-3.085938 8.199219-7.496094 8.480469-.148438 0-.316406.007813-.484375.007813zm0 0" data-original="#000000" class="active-path" data-old_color="#000000" fill="#FFFFFF"/><path d="m400.371094 280.023438c-35.285156 0-64-28.710938-64-64 0-35.289063 28.714844-64 64-64 35.289062 0 64 28.710937 64 64 0 35.289062-28.710938 64-64 64zm0-112c-26.472656 0-48 21.527343-48 48 0 26.472656 21.527344 48 48 48s48-21.527344 48-48c0-26.472657-21.527344-48-48-48zm0 0" data-original="#000000" class="active-path" data-old_color="#000000" fill="#FFFFFF"/><path d="m400.371094 240.023438c-13.230469 0-24-10.765626-24-24 0-13.230469 10.769531-24 24-24 13.234375 0 24 10.769531 24 24 0 13.234374-10.765625 24-24 24zm0-32c-4.414063 0-8 3.585937-8 8 0 4.417968 3.585937 8 8 8 4.417968 0 8-3.582032 8-8 0-4.414063-3.582032-8-8-8zm0 0" data-original="#000000" class="active-path" data-old_color="#000000" fill="#FFFFFF"/><path d="m432.292969 270.023438c-4.191407 0-7.722657-3.261719-7.976563-7.503907-.785156-12.609375-11.296875-22.496093-23.953125-22.496093s-23.167969 9.878906-23.953125 22.496093c-.261718 4.410157-3.988281 7.785157-8.476562 7.496094-4.410156-.273437-7.769532-4.070313-7.496094-8.480469 1.292969-21.03125 18.832031-37.503906 39.917969-37.503906 21.089843 0 38.625 16.480469 39.921875 37.503906.269531 4.410156-3.089844 8.199219-7.496094 8.480469-.152344 0-.320312.007813-.488281.007813zm0 0" data-original="#000000" class="active-path" data-old_color="#000000" fill="#FFFFFF"/><path d="m232.5 128.007812c-4.390625 0-7.96875-3.535156-8-7.9375-.097656-11.734374 9.601562-17.65625 17.390625-22.421874 9.058594-5.535157 14.609375-9.359376 14.609375-17.648438 0-13.230469-10.769531-24-24-24s-24 10.769531-24 24c0 4.425781-3.574219 8-8 8s-8-3.574219-8-8c0-22.054688 17.945312-40 40-40s40 17.945312 40 40c0 17.679688-12.863281 25.550781-22.265625 31.296875-5.886719 3.597656-9.757813 6.160156-9.734375 8.648437.03125 4.421876-3.511719 8.03125-7.9375 8.0625-.023438 0-.039062 0-.0625 0zm0 0" data-original="#000000" class="active-path" data-old_color="#000000" fill="#FFFFFF"/><path d="m232.613281 151.992188c-4.425781 0-8.042969-3.578126-8.042969-8 0-4.425782 3.539063-8 7.953126-8h.089843c4.414063 0 8 3.574218 8 8 0 4.421874-3.585937 8-8 8zm0 0" data-original="#000000" class="active-path" data-old_color="#000000" fill="#FFFFFF"/></g> </svg>
