<?xml version="1.0"?>
<svg xmlns="http://www.w3.org/2000/svg" id="Outline" viewBox="0 0 512 512" width="512" height="512"><path d="M488,64H464V56a8,8,0,0,0-8-8H400V40a24,24,0,0,0-48,0v8H336V40a24,24,0,0,0-48,0v8H192V40a24,24,0,0,0-48,0v8H128V40a24,24,0,0,0-48,0v8H24a8,8,0,0,0-8,8V456a8,8,0,0,0,8,8h8v24a8,8,0,0,0,8,8H488a8,8,0,0,0,8-8V72A8,8,0,0,0,488,64ZM32,448V160H448V448ZM368,40a8,8,0,0,1,16,0v8H368Zm-64,0a8,8,0,0,1,16,0v8H304ZM160,40a8,8,0,0,1,16,0v8H160ZM96,40a8,8,0,0,1,16,0v8H96ZM80,64v8a24.028,24.028,0,0,0,24,24,8,8,0,0,0,0-16,8.009,8.009,0,0,1-8-8V64h48v8a24.028,24.028,0,0,0,24,24,8,8,0,0,0,0-16,8.009,8.009,0,0,1-8-8V64H288v8a24.028,24.028,0,0,0,24,24,8,8,0,0,0,0-16,8.009,8.009,0,0,1-8-8V64h48v8a24.028,24.028,0,0,0,24,24,8,8,0,0,0,0-16,8.009,8.009,0,0,1-8-8V64h80v80H32V64ZM480,480H48V464H456a8,8,0,0,0,8-8V80h16Z"/><path d="M264,200H216a24.027,24.027,0,0,0-24,24v8H136a8,8,0,0,0-8,8v80a8,8,0,0,0,6.784,7.907l1.216.187V400a8,8,0,0,0,8,8H336a8,8,0,0,0,8-8V328.094l1.216-.187A8,8,0,0,0,352,320V240a8,8,0,0,0-8-8H288v-8A24.027,24.027,0,0,0,264,200Zm-56,24a8.009,8.009,0,0,1,8-8h48a8.009,8.009,0,0,1,8,8v8H208ZM328,392H152V330.556l64,9.846V352a8,8,0,0,0,8,8h32a8,8,0,0,0,8-8V340.4l64-9.846Zm-96-48V328h16v16Zm104-30.863-72,11.076V320a8,8,0,0,0-8-8H224a8,8,0,0,0-8,8v4.213l-72-11.076V248H336Z"/></svg>
