<?xml version="1.0" encoding="iso-8859-1"?>
<!-- Generator: Adobe Illustrator 19.0.0, SVG Export Plug-In . SVG Version: 6.00 Build 0)  -->
<svg xmlns="http://www.w3.org/2000/svg" xmlns:xlink="http://www.w3.org/1999/xlink" version="1.1" id="Layer_1" x="0px" y="0px" viewBox="0 0 512 512" style="enable-background:new 0 0 512 512;" xml:space="preserve" width="512" height="512">
<g>
	<g>
		<path d="M46.97,127.768c24.653,0,44.711-20.058,44.711-44.711S71.623,38.346,46.97,38.346S2.259,58.403,2.259,83.057    S22.316,127.768,46.97,127.768z M46.97,53.346c16.383,0,29.711,13.328,29.711,29.711s-13.328,29.711-29.711,29.711    S17.259,99.439,17.259,83.057S30.587,53.346,46.97,53.346z"/>
		<path d="M465.041,127.768c24.653,0,44.711-20.058,44.711-44.711s-20.058-44.711-44.711-44.711S420.33,58.403,420.33,83.057    S440.388,127.768,465.041,127.768z M465.041,53.346c16.383,0,29.711,13.328,29.711,29.711s-13.328,29.711-29.711,29.711    S435.33,99.439,435.33,83.057S448.658,53.346,465.041,53.346z"/>
		<path d="M335.486,393.783c-3.276-4.326-8.473-6.909-13.9-6.909H190.425c-5.428,0-10.624,2.583-13.899,6.908l-38.558,50.899    c-4.024,5.313-4.682,12.322-1.716,18.291c2.967,5.969,8.95,9.676,15.615,9.676h208.276c6.665,0,12.648-3.708,15.615-9.676    c2.966-5.969,2.309-12.978-1.716-18.291L335.486,393.783z M362.326,456.295c-0.251,0.505-0.868,1.353-2.183,1.353H151.867    c-1.314,0-1.932-0.847-2.183-1.353s-0.554-1.509,0.24-2.557l38.559-50.899c0.457-0.604,1.183-0.965,1.941-0.965h131.161    c0.759,0,1.484,0.361,1.942,0.966l38.558,50.898C362.88,454.786,362.577,455.79,362.326,456.295z"/>
		<path d="M491.787,429.376V146.129c0-4.142-3.357-7.5-7.5-7.5s-7.5,3.358-7.5,7.5V429.29h-23.492V146.129    c0-4.142-3.357-7.5-7.5-7.5s-7.5,3.358-7.5,7.5v23.34c-46.647,27.897-112.778,43.839-182.289,43.839    s-135.643-15.942-182.29-43.839v-23.34c0-4.142-3.357-7.5-7.5-7.5s-7.5,3.358-7.5,7.5V429.29H35.224V146.129    c0-4.142-3.357-7.5-7.5-7.5s-7.5,3.358-7.5,7.5v283.247C8.906,430.37,0,439.9,0,451.472c0,12.231,9.951,22.183,22.183,22.183    h49.553c12.231,0,22.183-9.951,22.183-22.183c0-11.564-8.895-21.089-20.202-22.094V186.751    c48.323,26.516,113.857,41.557,182.29,41.557c68.433,0,133.967-15.041,182.289-41.557v242.625    c-11.312,1-20.213,10.528-20.213,22.095c0,12.231,9.951,22.183,22.183,22.183h49.553c12.231,0,22.183-9.951,22.183-22.183    C512,439.904,503.099,430.376,491.787,429.376z M78.918,451.472c0,3.96-3.222,7.183-7.183,7.183H22.183    c-3.961,0-7.183-3.222-7.183-7.183s3.222-7.182,7.183-7.182h49.553C75.696,444.29,78.918,447.511,78.918,451.472z     M489.817,458.654h-49.553c-3.961,0-7.183-3.222-7.183-7.183s3.222-7.182,7.183-7.182h49.553c3.961,0,7.183,3.222,7.183,7.182    S493.778,458.654,489.817,458.654z"/>
	</g>
</g>















</svg>
